<?xml version="1.0" encoding="UTF-8"?>
<svg version="1.1" xmlns="http://www.w3.org/2000/svg" width="256" height="256">
<path d="M0 0 C1.71928207 -0.01007584 1.71928207 -0.01007584 3.47329712 -0.02035522 C7.23793962 -0.03925024 11.00240296 -0.04325541 14.76708984 -0.04541016 C17.40489778 -0.05184483 20.04270501 -0.05857368 22.68051147 -0.06558228 C28.20303499 -0.07833327 33.72551062 -0.08135145 39.24804688 -0.08007812 C45.59078361 -0.07887951 51.93317856 -0.09993839 58.27582896 -0.13156545 C63.75735528 -0.15790419 69.23877122 -0.16843806 74.72036016 -0.16716731 C77.97820874 -0.16666259 81.23568931 -0.1739725 84.49348831 -0.19352341 C101.3635897 -0.28527474 117.32058492 -0.12949341 132.54052734 8.10302734 C133.20463623 8.45067139 133.86874512 8.79831543 134.55297852 9.15649414 C139.87662936 12.01535913 144.6334331 15.20427421 149.10302734 19.29052734 C150.44107422 20.49128906 150.44107422 20.49128906 151.80615234 21.71630859 C166.24740891 35.34869696 175.75954467 54.24911087 176.4907074 74.30183411 C176.51117169 76.37715441 176.51597611 78.45267404 176.50708008 80.52807617 C176.51737495 82.24801537 176.51737495 82.24801537 176.52787781 84.00270081 C176.54601156 87.75111675 176.54232692 91.49910868 176.53662109 95.24755859 C176.54118972 97.88107944 176.5464973 100.51459911 176.55250549 103.14811707 C176.56249135 108.65274019 176.55928133 114.15724552 176.54907227 119.66186523 C176.53760718 125.98252879 176.5516555 132.3027672 176.57846874 138.62337476 C176.6034836 144.75458319 176.60577188 150.88559868 176.59935188 157.01685143 C176.59919961 159.60213617 176.60516565 162.18742946 176.61764336 164.7726841 C176.68743382 181.6025632 176.50162945 197.54593439 168.29052734 212.72802734 C167.9436084 213.39141113 167.59668945 214.05479492 167.23925781 214.73828125 C164.3838987 220.05933614 161.17889497 224.8180432 157.10302734 229.29052734 C156.38759766 230.09748047 155.67216797 230.90443359 154.93505859 231.73583984 C141.71890333 245.83594676 122.67955031 255.99629066 103.12931824 256.6782074 C101.01281831 256.69873244 98.89612187 256.70345101 96.77954102 256.69458008 C95.02815071 256.70487495 95.02815071 256.70487495 93.24137878 256.71537781 C89.41779083 256.73353749 85.59461752 256.72982313 81.77099609 256.72412109 C79.76799669 256.72753192 77.76499711 256.73095239 75.76199991 256.73547417 C69.47385676 256.74945836 63.18584964 256.74801034 56.89770508 256.73657227 C50.45264545 256.72510639 44.00800271 256.7391546 37.562998 256.76596874 C31.99141303 256.78826444 26.41995759 256.79473193 20.84833127 256.78889233 C17.5374704 256.78555325 14.22693154 256.78948906 10.91609764 256.80514336 C-5.9445445 256.87363503 -21.07415046 256.58421023 -36.27197266 248.47802734 C-36.94059326 248.1303833 -37.60921387 247.78273926 -38.2980957 247.42456055 C-43.64829252 244.57099221 -48.41125466 241.39152135 -52.89697266 237.29052734 C-53.78900391 236.49001953 -54.68103516 235.68951172 -55.60009766 234.86474609 C-70.04135422 221.23235773 -79.55348998 202.33194382 -80.28465271 182.27922058 C-80.305117 180.20390028 -80.30992142 178.12838065 -80.30102539 176.05297852 C-80.30788864 174.90635239 -80.31475189 173.75972626 -80.32182312 172.57835388 C-80.33995687 168.82993794 -80.33627223 165.08194601 -80.33056641 161.33349609 C-80.33513503 158.69997524 -80.34044261 156.06645558 -80.34645081 153.43293762 C-80.35643666 147.92831449 -80.35322664 142.42380917 -80.34301758 136.91918945 C-80.33155249 130.5985259 -80.34560081 124.27828749 -80.37241405 117.95767993 C-80.39742891 111.82647149 -80.39971719 105.69545601 -80.3932972 99.56420326 C-80.39314492 96.97891852 -80.39911096 94.39362523 -80.41158867 91.80837059 C-80.48137685 74.97904202 -80.29614793 59.03443152 -72.08447266 43.85302734 C-71.73682861 43.18891846 -71.38918457 42.52480957 -71.03100586 41.84057617 C-68.17281027 36.51817186 -64.98706178 31.75540551 -60.89697266 27.29052734 C-60.08486328 26.39849609 -59.27275391 25.50646484 -58.43603516 24.58740234 C-42.38892875 7.75863173 -23.06917804 -0.01970714 0 0 Z M-43.89697266 27.29052734 C-44.88826172 28.07169922 -45.87955078 28.85287109 -46.90087891 29.65771484 C-49.95945177 32.34543077 -52.50643813 35.18708321 -54.95947266 38.41552734 C-55.39138916 38.98247314 -55.82330566 39.54941895 -56.26831055 40.13354492 C-65.95811295 53.2271306 -69.03992035 67.99514614 -69.05810547 83.96069336 C-69.06307037 85.01212021 -69.06803528 86.06354706 -69.07315063 87.14683533 C-69.0877106 90.61270818 -69.09456493 94.07853522 -69.10009766 97.54443359 C-69.10292503 98.73412184 -69.10575241 99.92381008 -69.10866547 101.14954948 C-69.12363541 107.44857886 -69.13287799 113.74758546 -69.13720703 120.04663086 C-69.14268012 126.52341844 -69.16669012 132.99999458 -69.19517899 139.47671604 C-69.21389303 144.4827483 -69.21901568 149.48873058 -69.22054291 154.49479485 C-69.22355153 156.88077891 -69.2315188 159.26676247 -69.24472809 161.65271187 C-69.35946888 183.97601088 -67.34831502 202.28108932 -52.89697266 220.29052734 C-52.11580078 221.28181641 -51.33462891 222.27310547 -50.52978516 223.29443359 C-47.84206923 226.35300646 -45.00041679 228.89999282 -41.77197266 231.35302734 C-40.92155396 232.0009021 -40.92155396 232.0009021 -40.05395508 232.66186523 C-26.9603694 242.35166764 -12.19235386 245.43347504 3.77319336 245.45166016 C4.82462021 245.45662506 5.87604706 245.46158997 6.95933533 245.46670532 C10.42520818 245.48126529 13.89103522 245.48811962 17.35693359 245.49365234 C18.54662184 245.49647972 19.73631008 245.4993071 20.96204948 245.50222015 C27.26107886 245.5171901 33.56008546 245.52643268 39.85913086 245.53076172 C46.33591844 245.5362348 52.81249458 245.56024481 59.28921604 245.58873367 C64.2952483 245.60744771 69.30123058 245.61257037 74.30729485 245.6140976 C76.69327891 245.61710622 79.07926247 245.62507348 81.46521187 245.63828278 C103.78851088 245.75302357 122.09358932 243.74186971 140.10302734 229.29052734 C141.09431641 228.50935547 142.08560547 227.72818359 143.10693359 226.92333984 C146.16550646 224.23562392 148.71249282 221.39397147 151.16552734 218.16552734 C151.59744385 217.59858154 152.02936035 217.03163574 152.47436523 216.44750977 C162.16416764 203.35392408 165.24597504 188.58590855 165.26416016 172.62036133 C165.26912506 171.56893448 165.27408997 170.51750763 165.27920532 169.43421936 C165.29376529 165.96834651 165.30061962 162.50251946 165.30615234 159.03662109 C165.30897972 157.84693285 165.3118071 156.65724461 165.31472015 155.4315052 C165.3296901 149.13247583 165.33893268 142.83346922 165.34326172 136.53442383 C165.3487348 130.05763625 165.37274481 123.58106011 165.40123367 117.10433865 C165.41994771 112.09830639 165.42507037 107.09232411 165.4265976 102.08625984 C165.42960622 99.70027578 165.43757348 97.31429221 165.45078278 94.92834282 C165.56607119 72.49850159 163.46205064 54.44697829 149.10302734 36.29052734 C148.36052734 35.25927734 147.61802734 34.22802734 146.85302734 33.16552734 C134.92493704 20.69525112 118.15342231 11.92161514 100.74952507 11.19184113 C97.97694266 11.14679572 95.20581074 11.13255298 92.43286133 11.12939453 C91.38143448 11.12442963 90.33000763 11.11946472 89.24671936 11.11434937 C85.78084651 11.0997894 82.31501946 11.09293507 78.84912109 11.08740234 C77.65943285 11.08457497 76.46974461 11.08174759 75.2440052 11.07883453 C68.94497583 11.06386459 62.64596922 11.05462201 56.34692383 11.05029297 C49.87013625 11.04481988 43.39356011 11.02080988 36.91683865 10.99232101 C31.91080639 10.97360697 26.90482411 10.96848432 21.89875984 10.96695709 C19.51277578 10.96394847 17.12679221 10.9559812 14.74084282 10.94277191 C-7.58245619 10.82803112 -25.88753464 12.83918498 -43.89697266 27.29052734 Z " fill="#F05F41" transform="translate(79.89697265625,-0.29052734375)"/>
<path d="M0 0 C0.66159119 0.00027191 1.32318237 0.00054382 2.00482178 0.00082397 C19.37272516 0.03321421 36.5911814 1.32443324 53.8125 3.5625 C54.6473291 3.66409424 55.4821582 3.76568848 56.34228516 3.87036133 C63.28488098 4.86205917 68.88667817 6.98893691 74 11.875 C87.71715107 32.64668591 83.59818967 68.49339276 79.70556641 91.69042969 C78.57612175 97.13433163 77.19728408 102.81690112 73.4375 107.0625 C72.98890625 107.59617187 72.5403125 108.12984375 72.078125 108.6796875 C65.2511395 114.12434949 56.61611841 114.32359828 48.25 115.3125 C46.83006458 115.48589172 45.41014277 115.65939491 43.99023438 115.83300781 C34.73421779 116.94709102 25.51612664 118.02436623 16.1875 118.1875 C15.11129395 118.20796387 14.03508789 118.22842773 12.92626953 118.24951172 C-8.88994085 118.59753564 -30.33903621 117.49539912 -52 114.75 C-53.35460327 114.58504028 -53.35460327 114.58504028 -54.73657227 114.41674805 C-62.37412578 113.37005821 -67.66784576 111.1664225 -72.8125 105.1875 C-75.5231027 100.52114598 -76.60041526 96.24604811 -77.4375 91 C-77.55867188 90.30841797 -77.67984375 89.61683594 -77.8046875 88.90429688 C-80.77933714 71.23423137 -80.67560283 53.19397559 -78.5625 35.4375 C-78.45325195 34.47497314 -78.34400391 33.51244629 -78.23144531 32.52075195 C-77.02415554 23.37814611 -75.25001567 14.21868974 -67.69140625 8.30859375 C-63.31878373 5.69956534 -59.09011473 4.79519454 -54.0703125 4.15234375 C-53.42488495 4.06876114 -52.7794574 3.98517853 -52.11447144 3.89906311 C-50.74827152 3.72369188 -49.38164837 3.55159039 -48.01464844 3.38256836 C-45.97734954 3.12994138 -43.94183013 2.86569019 -41.90625 2.59960938 C-27.96186577 0.81038552 -14.06292116 -0.00995829 0 0 Z M-50.1875 15.5 C-50.99550049 15.59321533 -51.80350098 15.68643066 -52.63598633 15.7824707 C-56.45952901 16.34154056 -58.54529758 16.99547053 -61.7421875 19.29296875 C-64.25844412 22.81098036 -64.99589114 25.99459441 -65.5625 30.1875 C-65.67827393 30.9400708 -65.79404785 31.6926416 -65.91333008 32.46801758 C-68.83500398 52.21183111 -71.13198161 79.31891572 -62.8125 98.1875 C-59.44856754 101.86182024 -54.95662838 102.11597772 -50.25 102.75 C-49.38012451 102.87221924 -48.51024902 102.99443848 -47.61401367 103.12036133 C-14.32368375 107.55112009 19.35411327 107.35155738 52.625 102.8125 C53.4291333 102.71090576 54.2332666 102.60931152 55.06176758 102.50463867 C59.81789216 101.78370052 62.99705894 100.8646185 66.1875 97.1875 C67.03136091 94.43603802 67.55981918 92.12457662 67.9375 89.3125 C68.05327393 88.5587207 68.16904785 87.80494141 68.28833008 87.02832031 C69.305642 80.10622372 69.92304011 73.17915843 70.1875 66.1875 C70.22875 65.17945313 70.27 64.17140625 70.3125 63.1328125 C70.51700444 53.08653171 69.37714941 43.14730532 68.1875 33.1875 C68.05472656 32.01574219 67.92195312 30.84398437 67.78515625 29.63671875 C67.64980469 28.68410156 67.51445312 27.73148438 67.375 26.75 C67.26542969 25.96753906 67.15585938 25.18507813 67.04296875 24.37890625 C65.71981305 20.9894526 64.06489649 19.41588789 61.1875 17.1875 C58.18946413 16.19343228 55.19480465 15.84125014 52.0625 15.5 C50.69399902 15.3302063 50.69399902 15.3302063 49.29785156 15.15698242 C46.26374861 14.79842972 43.22813794 14.48543538 40.1875 14.1875 C39.12499023 14.08308594 38.06248047 13.97867188 36.96777344 13.87109375 C7.80850075 11.13443495 -21.13955774 11.70032037 -50.1875 15.5 Z " fill="#F56035" transform="translate(126.8125,68.8125)"/>
<path d="M0 0 C3.93160839 0.56961276 6.39077029 1.90611067 9.80175781 3.93969727 C10.41323669 4.30042831 11.02471558 4.66115936 11.65472412 5.03282166 C12.94581587 5.79767665 14.23322442 6.56877929 15.51708984 7.34570312 C17.44685435 8.51333828 19.38651162 9.66269501 21.32910156 10.80883789 C39.14063552 21.38404372 39.14063552 21.38404372 43.22363281 25.46704102 C43.59863281 28.27954102 43.59863281 28.27954102 43.22363281 31.46704102 C39.50968086 34.92419117 35.19868413 37.39551386 30.84082031 39.94360352 C29.79669479 40.56058609 29.79669479 40.56058609 28.73147583 41.19003296 C26.52265314 42.49434652 24.31078494 43.79338383 22.09863281 45.09204102 C19.87997463 46.3988889 17.66196097 47.70682048 15.44436646 49.01547241 C14.06839214 49.82699563 12.69169107 50.63728819 11.31417847 51.44619751 C8.56956339 53.06110669 5.87415274 54.70002773 3.22363281 56.46704102 C-2.03083517 57.01438143 -2.03083517 57.01438143 -4.43960571 55.24595642 C-6.17728571 52.93351268 -6.15648881 51.56891204 -6.16455078 48.69189453 C-6.17400726 47.72401505 -6.18346375 46.75613556 -6.19320679 45.75892639 C-6.18713409 44.71514328 -6.1810614 43.67136017 -6.17480469 42.59594727 C-6.17767487 41.5220726 -6.18054504 40.44819794 -6.1835022 39.34178162 C-6.1855446 37.06964593 -6.18000248 34.79749273 -6.16748047 32.52539062 C-6.15144561 29.046556 -6.1673158 25.56888602 -6.18652344 22.09008789 C-6.18454073 19.88370512 -6.18069649 17.67732307 -6.17480469 15.47094727 C-6.18087738 14.42918839 -6.18695007 13.3874295 -6.19320679 12.31410217 C-6.18375031 11.34307053 -6.17429382 10.37203888 -6.16455078 9.37158203 C-6.162164 8.51903336 -6.15977722 7.66648468 -6.15731812 6.7881012 C-5.49914968 2.77800848 -4.0379672 0.67926761 0 0 Z M6.22363281 17.46704102 C6.22363281 24.72704102 6.22363281 31.98704102 6.22363281 39.46704102 C9.35275749 38.21539115 11.93736406 37.16562665 14.77441406 35.52172852 C15.38994141 35.16723633 16.00546875 34.81274414 16.63964844 34.44750977 C17.26548828 34.08270508 17.89132813 33.71790039 18.53613281 33.34204102 C19.18130859 32.96950195 19.82648438 32.59696289 20.49121094 32.21313477 C22.07039227 31.30071889 23.64725145 30.38428592 25.22363281 29.46704102 C25.22363281 28.80704102 25.22363281 28.14704102 25.22363281 27.46704102 C23.64228623 26.23731498 23.64228623 26.23731498 21.57519531 25.08422852 C20.81722656 24.63950195 20.05925781 24.19477539 19.27832031 23.73657227 C18.47652344 23.27637695 17.67472656 22.81618164 16.84863281 22.34204102 C16.05457031 21.87411133 15.26050781 21.40618164 14.44238281 20.92407227 C10.57328915 18.40343733 10.57328915 18.40343733 6.22363281 17.46704102 Z " fill="#F7662F" transform="translate(112.7763671875,99.532958984375)"/>
</svg>
